<svg width="25" height="24" viewBox="0 0 25 24" fill="none" xmlns="http://www.w3.org/2000/svg">
<mask id="mask0_164_1463" style="mask-type:alpha" maskUnits="userSpaceOnUse" x="1" y="0" width="24" height="24">
<path d="M14.1397 1.99918C14.1397 1.17075 13.4681 0.499176 12.6397 0.499176C11.8112 0.499176 11.1397 1.17075 11.1397 1.99918V10.4992H2.63965C1.81122 10.4992 1.13965 11.1707 1.13965 11.9992C1.13965 12.8276 1.81122 13.4992 2.63965 13.4992H11.1397V21.9992C11.1397 22.8276 11.8112 23.4992 12.6397 23.4992C13.4681 23.4992 14.1397 22.8276 14.1397 21.9992V13.4992H22.6397C23.4681 13.4992 24.1397 12.8276 24.1397 11.9992C24.1397 11.1707 23.4681 10.4992 22.6397 10.4992H14.1397V1.99918Z" fill="#006FFD"/>
</mask>
<g mask="url(#mask0_164_1463)">
<rect x="0.639648" y="-0.000823975" width="24" height="24" fill="#006FFD"/>
</g>
</svg>
