<svg width="25" height="25" viewBox="0 0 25 25" fill="none" xmlns="http://www.w3.org/2000/svg">
<mask id="mask0_216_3993" style="mask-type:alpha" maskUnits="userSpaceOnUse" x="0" y="0" width="25" height="23">
<path d="M12.6357 9.10321C10.6032 9.10321 8.88574 10.8207 8.88574 12.8532C8.88574 14.8857 10.6032 16.6032 12.6357 16.6032C14.6682 16.6032 16.3857 14.8857 16.3857 12.8532C16.3857 10.8207 14.6682 9.10321 12.6357 9.10321Z" fill="#006FFD"/>
<path d="M22.2357 4.45321H19.1325L15.8841 1.20481C15.7729 1.09316 15.6407 1.00462 15.4951 0.944273C15.3495 0.883931 15.1934 0.852983 15.0357 0.853212H10.2357C10.0781 0.852983 9.92203 0.883931 9.77642 0.944273C9.63082 1.00462 9.49859 1.09316 9.38734 1.20481L6.13894 4.45321H3.03574C1.71214 4.45321 0.635742 5.52961 0.635742 6.85321V20.0532C0.635742 21.3768 1.71214 22.4532 3.03574 22.4532H22.2357C23.5593 22.4532 24.6357 21.3768 24.6357 20.0532V6.85321C24.6357 5.52961 23.5593 4.45321 22.2357 4.45321ZM12.6357 18.8532C9.38374 18.8532 6.63574 16.1052 6.63574 12.8532C6.63574 9.60121 9.38374 6.85321 12.6357 6.85321C15.8877 6.85321 18.6357 9.60121 18.6357 12.8532C18.6357 16.1052 15.8877 18.8532 12.6357 18.8532Z" fill="#006FFD"/>
</mask>
<g mask="url(#mask0_216_3993)">
<rect x="0.635742" y="0.24646" width="24" height="24" fill="#006FFD"/>
</g>
</svg>
