<svg width="25" height="24" viewBox="0 0 25 24" fill="none" xmlns="http://www.w3.org/2000/svg">
<mask id="mask0_267_7096" style="mask-type:alpha" maskUnits="userSpaceOnUse" x="2" y="1" width="21" height="21">
<path d="M3.47012 10.3311C3.24909 10.3311 3.03711 10.2433 2.88082 10.087C2.72452 9.93072 2.63672 9.71874 2.63672 9.49771V2.83215C2.63672 2.61112 2.72452 2.39914 2.88082 2.24285C3.03711 2.08655 3.24909 1.99875 3.47012 1.99875H10.1373C10.3584 1.99875 10.5704 2.08655 10.7266 2.24285C10.8829 2.39914 10.9707 2.61112 10.9707 2.83215V9.49771C10.9707 9.71874 10.8829 9.93072 10.7266 10.087C10.5704 10.2433 10.3584 10.3311 10.1373 10.3311H3.47012ZM15.1378 10.3311C14.9167 10.3311 14.7047 10.2433 14.5485 10.087C14.3922 9.93072 14.3044 9.71874 14.3044 9.49771V2.83215C14.3044 2.61112 14.3922 2.39914 14.5485 2.24285C14.7047 2.08655 14.9167 1.99875 15.1378 1.99875H21.8033C22.0243 1.99875 22.2363 2.08655 22.3926 2.24285C22.5489 2.39914 22.6367 2.61112 22.6367 2.83215V9.49771C22.6367 9.71874 22.5489 9.93072 22.3926 10.087C22.2363 10.2433 22.0243 10.3311 21.8033 10.3311H15.1378ZM3.47012 21.9988C3.24909 21.9988 3.03711 21.9109 2.88082 21.7547C2.72452 21.5984 2.63672 21.3864 2.63672 21.1653V14.4981C2.63672 14.2771 2.72452 14.0651 2.88082 13.9088C3.03711 13.7525 3.24909 13.6647 3.47012 13.6647H10.1373C10.3584 13.6647 10.5704 13.7525 10.7266 13.9088C10.8829 14.0651 10.9707 14.2771 10.9707 14.4981V21.1653C10.9707 21.3864 10.8829 21.5984 10.7266 21.7547C10.5704 21.9109 10.3584 21.9988 10.1373 21.9988H3.47012ZM15.1378 21.9988C14.9167 21.9988 14.7047 21.9109 14.5485 21.7547C14.3922 21.5984 14.3044 21.3864 14.3044 21.1653V14.4981C14.3044 14.2771 14.3922 14.0651 14.5485 13.9088C14.7047 13.7525 14.9167 13.6647 15.1378 13.6647H21.8033C22.0243 13.6647 22.2363 13.7525 22.3926 13.9088C22.5489 14.0651 22.6367 14.2771 22.6367 14.4981V21.1653C22.6367 21.3864 22.5489 21.5984 22.3926 21.7547C22.2363 21.9109 22.0243 21.9988 21.8033 21.9988H15.1378Z" fill="black"/>
</mask>
<g mask="url(#mask0_267_7096)">
<rect x="0.636719" y="-0.00231934" width="24" height="24" fill="#006FFD"/>
</g>
</svg>
