<svg width="25" height="24" viewBox="0 0 25 24" fill="none" xmlns="http://www.w3.org/2000/svg">
<mask id="mask0_269_8083" style="mask-type:alpha" maskUnits="userSpaceOnUse" x="1" y="0" width="23" height="23">
<path d="M12.6354 0.999573C18.7099 0.999573 23.634 5.92367 23.634 11.9982C23.634 18.0728 18.7099 22.9969 12.6354 22.9969C10.8561 22.9992 9.10293 22.5681 7.52761 21.7408L2.80919 22.9694C2.65153 23.0105 2.48587 23.0096 2.32864 22.9669C2.17141 22.9242 2.02807 22.8412 1.91281 22.7261C1.79755 22.6109 1.71439 22.4677 1.67156 22.3105C1.62873 22.1533 1.62772 21.9876 1.66863 21.8299L2.89608 17.1126C2.06656 15.5356 1.63428 13.7801 1.63673 11.9982C1.63673 5.92367 6.56083 0.999573 12.6354 0.999573Z" fill="#006FFD"/>
</mask>
<g mask="url(#mask0_269_8083)">
<rect x="0.635742" y="-0.000427246" width="24" height="24" fill="#006FFD"/>
</g>
</svg>
