<svg width="25" height="24" viewBox="0 0 25 24" fill="none" xmlns="http://www.w3.org/2000/svg">
<mask id="mask0_269_7726" style="mask-type:alpha" maskUnits="userSpaceOnUse" x="1" y="0" width="23" height="24">
<path fill-rule="evenodd" clip-rule="evenodd" d="M4.63574 5.24957C4.22153 5.24957 3.88574 5.58536 3.88574 5.99957V19.9996C3.88574 20.4138 4.22153 20.7496 4.63574 20.7496H18.6357C19.05 20.7496 19.3857 20.4138 19.3857 19.9996V12.9996C19.3857 12.3092 19.9454 11.7496 20.6357 11.7496C21.3261 11.7496 21.8857 12.3092 21.8857 12.9996V19.9996C21.8857 21.7945 20.4307 23.2496 18.6357 23.2496H4.63574C2.84082 23.2496 1.38574 21.7945 1.38574 19.9996V5.99957C1.38574 4.20465 2.84082 2.74957 4.63574 2.74957H11.6357C12.3261 2.74957 12.8857 3.30922 12.8857 3.99957C12.8857 4.68993 12.3261 5.24957 11.6357 5.24957H4.63574Z" fill="#006FFD"/>
<path d="M13.7304 14.3004L20.8783 7.15254L17.4832 3.75746L10.3353 10.9053C10.2369 11.0038 10.167 11.1271 10.1331 11.2622L9.34082 15.2949L13.3728 14.5027C13.5081 14.4688 13.632 14.3988 13.7304 14.3004ZM23.1857 4.84506C23.4741 4.55658 23.6361 4.16537 23.6361 3.75746C23.6361 3.34955 23.4741 2.95834 23.1857 2.66986L21.9659 1.44997C21.6774 1.16158 21.2862 0.999573 20.8783 0.999573C20.4703 0.999573 20.0791 1.16158 19.7907 1.44997L18.5708 2.66986L21.9659 6.06495L23.1857 4.84506Z" fill="#006FFD"/>
</mask>
<g mask="url(#mask0_269_7726)">
<rect x="0.635742" y="-0.000427246" width="24" height="24" fill="#006FFD"/>
</g>
</svg>
