<svg width="25" height="24" viewBox="0 0 25 24" fill="none" xmlns="http://www.w3.org/2000/svg">
<mask id="mask0_156_1578" style="mask-type:alpha" maskUnits="userSpaceOnUse" x="1" y="0" width="23" height="23">
<circle cx="12.6357" cy="11.9996" r="11" fill="#D9D9D9"/>
</mask>
<g mask="url(#mask0_156_1578)">
<rect x="0.635742" y="-0.000427246" width="24" height="24" fill="#006FFD"/>
</g>
<path d="M9.97072 7.82079C9.55273 7.4028 8.87503 7.4028 8.45705 7.82079C8.03906 8.23877 8.03906 8.91647 8.45705 9.33446L11.1222 11.9996L8.45705 14.6647C8.03906 15.0827 8.03906 15.7604 8.45705 16.1784C8.87504 16.5964 9.55273 16.5964 9.97072 16.1784L12.6358 13.5133L15.301 16.1784C15.719 16.5964 16.3966 16.5964 16.8146 16.1784C17.2326 15.7604 17.2326 15.0827 16.8146 14.6647L14.1495 11.9996L16.8146 9.33446C17.2326 8.91647 17.2326 8.23877 16.8146 7.82079C16.3966 7.4028 15.719 7.4028 15.301 7.82079L12.6358 10.4859L9.97072 7.82079Z" fill="white"/>
</svg>
