<svg width="25" height="24" viewBox="0 0 25 24" fill="none" xmlns="http://www.w3.org/2000/svg">
<mask id="mask0_269_8036" style="mask-type:alpha" maskUnits="userSpaceOnUse" x="2" y="1" width="21" height="21">
<path d="M8.77706 20.6082L18.7773 10.6079L14.0274 5.85802L4.02714 15.8582C3.88947 15.9961 3.79168 16.1686 3.74413 16.3576L2.63574 21.9996L8.27668 20.8912C8.46607 20.8438 8.63932 20.7459 8.77706 20.6082ZM22.0056 7.37963C22.4091 6.97603 22.6357 6.42871 22.6357 5.85802C22.6357 5.28733 22.4091 4.74001 22.0056 4.33641L20.2989 2.62971C19.8953 2.22623 19.348 1.99957 18.7773 1.99957C18.2066 1.99957 17.6593 2.22623 17.2557 2.62971L15.549 4.33641L20.2989 9.08633L22.0056 7.37963Z" fill="#006FFD"/>
</mask>
<g mask="url(#mask0_269_8036)">
<rect x="0.635742" y="-0.000427246" width="24" height="24" fill="#006FFD"/>
</g>
</svg>
