<svg width="25" height="24" viewBox="0 0 25 24" fill="none" xmlns="http://www.w3.org/2000/svg">
<g clip-path="url(#clip0_290_7097)">
<mask id="mask0_290_7097" style="mask-type:alpha" maskUnits="userSpaceOnUse" x="4" y="-1" width="18" height="26">
<path fill-rule="evenodd" clip-rule="evenodd" d="M14.1959 0.059976C14.4395 0.145105 14.6523 0.314368 14.8034 0.543149C14.9545 0.771931 15.0359 1.0483 15.0359 1.33206V7.99918H19.8359C20.0554 7.99907 20.2707 8.06586 20.4584 8.19229C20.6461 8.31872 20.799 8.49993 20.9005 8.71621C21.002 8.9325 21.0481 9.17556 21.0339 9.41896C21.0197 9.66236 20.9457 9.89676 20.8199 10.0967L12.4199 23.4309C12.2737 23.6636 12.0645 23.8384 11.8227 23.9299C11.5809 24.0214 11.3192 24.0248 11.0755 23.9396C10.8319 23.8543 10.6191 23.6849 10.4681 23.456C10.3171 23.2271 10.2357 22.9507 10.2359 22.6668V15.9997H5.43589C5.21638 15.9998 5.00106 15.933 4.81335 15.8066C4.62563 15.6802 4.47272 15.499 4.37126 15.2827C4.26979 15.0664 4.22366 14.8233 4.23787 14.5799C4.25209 14.3365 4.32611 14.1021 4.45189 13.9022L12.8519 0.56801C12.9983 0.33571 13.2076 0.161333 13.4492 0.0702115C13.6909 -0.0209097 13.9525 -0.024028 14.1959 0.0613095V0.059976Z" fill="#006FFD"/>
</mask>
<g mask="url(#mask0_290_7097)">
<rect x="0.635742" y="-0.000488281" width="24" height="24" fill="#006FFD"/>
</g>
</g>
<defs>
<clipPath id="clip0_290_7097">
<rect width="24" height="24" fill="white" transform="translate(0.635742 -0.000488281)"/>
</clipPath>
</defs>
</svg>
