<svg width="25" height="24" viewBox="0 0 25 24" fill="none" xmlns="http://www.w3.org/2000/svg">
<mask id="mask0_267_5618" style="mask-type:alpha" maskUnits="userSpaceOnUse" x="0" y="1" width="25" height="22">
<path fill-rule="evenodd" clip-rule="evenodd" d="M23.3552 3.8807C23.8433 3.39254 23.8433 2.60108 23.3552 2.11293C22.867 1.62478 22.0755 1.62479 21.5874 2.11295L3.58779 20.113C3.09964 20.6011 3.09965 21.3926 3.58781 21.8807C4.07597 22.3689 4.86742 22.3689 5.35557 21.8807L7.94492 19.2913C10.8658 20.4312 14.2086 20.5146 17.3594 19.2761C20.6867 17.967 23.3267 15.3379 24.6357 11.9997C23.7809 9.83861 22.3806 7.99465 20.6285 6.60741L23.3552 3.8807ZM17.5672 9.66882L15.8504 11.3857C15.8888 11.5866 15.9085 11.7921 15.9085 11.9997C15.9085 12.8677 15.5637 13.7001 14.9499 14.3139C14.3362 14.9276 13.5037 15.2724 12.6357 15.2724C12.4282 15.2724 12.2227 15.2527 12.0218 15.2143L10.305 16.9312C11.0269 17.2724 11.822 17.4542 12.6357 17.4542C14.0824 17.4542 15.4698 16.8796 16.4927 15.8566C17.5156 14.8337 18.0903 13.4463 18.0903 11.9997C18.0903 11.1859 17.9084 10.3908 17.5672 9.66882ZM12.6357 3.81787C14.0262 3.81787 15.3792 4.04297 16.6537 4.46366L14.3092 6.80818C13.7734 6.63545 13.2092 6.54514 12.6357 6.54514C11.1891 6.54514 9.80172 7.11982 8.7788 8.14274C7.75587 9.16567 7.1812 10.5531 7.1812 11.9997C7.1812 12.5732 7.27152 13.1374 7.44428 13.6732L4.1358 16.9818C2.6344 15.6686 1.41646 13.9858 0.635742 11.9997C2.57756 7.0906 7.33392 3.81787 12.6357 3.81787ZM10.3216 9.68552C10.8749 9.13221 11.6059 8.79749 12.3805 8.73692L9.37297 11.7445C9.43352 10.9699 9.76825 10.2388 10.3216 9.68552Z" fill="#006FFD"/>
</mask>
<g mask="url(#mask0_267_5618)">
<rect x="0.635742" y="-0.000549316" width="24" height="24" fill="#006FFD"/>
</g>
</svg>
