<svg width="25" height="24" viewBox="0 0 25 24" fill="none" xmlns="http://www.w3.org/2000/svg">
<mask id="mask0_243_3080" style="mask-type:alpha" maskUnits="userSpaceOnUse" x="0" y="3" width="25" height="18">
<path d="M12.6357 8.72696C11.7678 8.72696 10.9353 9.07177 10.3216 9.68552C9.70782 10.2993 9.36302 11.1317 9.36302 11.9997C9.36302 12.8677 9.70782 13.7001 10.3216 14.3139C10.9353 14.9276 11.7678 15.2724 12.6357 15.2724C13.5037 15.2724 14.3362 14.9276 14.9499 14.3139C15.5637 13.7001 15.9085 12.8677 15.9085 11.9997C15.9085 11.1317 15.5637 10.2993 14.9499 9.68552C14.3362 9.07177 13.5037 8.72696 12.6357 8.72696ZM12.6357 17.4542C11.1891 17.4542 9.80172 16.8796 8.7788 15.8566C7.75587 14.8337 7.1812 13.4463 7.1812 11.9997C7.1812 10.5531 7.75587 9.16567 8.7788 8.14274C9.80172 7.11982 11.1891 6.54514 12.6357 6.54514C14.0824 6.54514 15.4698 7.11982 16.4927 8.14274C17.5156 9.16567 18.0903 10.5531 18.0903 11.9997C18.0903 13.4463 17.5156 14.8337 16.4927 15.8566C15.4698 16.8796 14.0824 17.4542 12.6357 17.4542ZM12.6357 3.81787C7.33392 3.81787 2.57756 7.0906 0.635742 11.9997C3.24302 18.6324 10.7267 21.8833 17.3594 19.2761C20.6867 17.967 23.3267 15.3379 24.6357 11.9997C22.6939 7.0906 17.9376 3.81787 12.6357 3.81787Z" fill="#006FFD"/>
</mask>
<g mask="url(#mask0_243_3080)">
<rect x="0.635742" y="-0.000549316" width="24" height="24" fill="#006FFD"/>
</g>
</svg>
