<svg width="25" height="24" viewBox="0 0 25 24" fill="none" xmlns="http://www.w3.org/2000/svg">
<mask id="mask0_216_4467" style="mask-type:alpha" maskUnits="userSpaceOnUse" x="2" y="2" width="21" height="19">
<path fill-rule="evenodd" clip-rule="evenodd" d="M2.63672 4.49878C2.63672 4.10095 2.78723 3.71942 3.05514 3.43812C3.32305 3.15681 3.68641 2.99878 4.06529 2.99878H21.2081C21.587 2.99878 21.9504 3.15681 22.2183 3.43812C22.4862 3.71942 22.6367 4.10095 22.6367 4.49878C22.6367 4.8966 22.4862 5.27813 22.2183 5.55944C21.9504 5.84074 21.587 5.99878 21.2081 5.99878H4.06529C3.68641 5.99878 3.32305 5.84074 3.05514 5.55944C2.78723 5.27813 2.63672 4.8966 2.63672 4.49878ZM2.63672 11.9988C2.63672 11.601 2.78723 11.2194 3.05514 10.9381C3.32305 10.6568 3.68641 10.4988 4.06529 10.4988H21.2081C21.587 10.4988 21.9504 10.6568 22.2183 10.9381C22.4862 11.2194 22.6367 11.601 22.6367 11.9988C22.6367 12.3966 22.4862 12.7781 22.2183 13.0594C21.9504 13.3407 21.587 13.4988 21.2081 13.4988H4.06529C3.68641 13.4988 3.32305 13.3407 3.05514 13.0594C2.78723 12.7781 2.63672 12.3966 2.63672 11.9988ZM2.63672 19.4988C2.63672 19.101 2.78723 18.7194 3.05514 18.4381C3.32305 18.1568 3.68641 17.9988 4.06529 17.9988H21.2081C21.587 17.9988 21.9504 18.1568 22.2183 18.4381C22.4862 18.7194 22.6367 19.101 22.6367 19.4988C22.6367 19.8966 22.4862 20.2781 22.2183 20.5594C21.9504 20.8407 21.587 20.9988 21.2081 20.9988H4.06529C3.68641 20.9988 3.32305 20.8407 3.05514 20.5594C2.78723 20.2781 2.63672 19.8966 2.63672 19.4988Z" fill="#006FFD"/>
</mask>
<g mask="url(#mask0_216_4467)">
<rect x="0.636719" y="-0.0012207" width="24" height="24" fill="#006FFD"/>
</g>
</svg>
