<svg width="25" height="24" viewBox="0 0 25 24" fill="none" xmlns="http://www.w3.org/2000/svg">
<mask id="mask0_126_530" style="mask-type:alpha" maskUnits="userSpaceOnUse" x="0" y="1" width="25" height="22">
<path fill-rule="evenodd" clip-rule="evenodd" d="M0.885742 7.83434C0.885742 4.26137 3.80831 1.38684 7.38574 1.38684C9.27045 1.38684 10.865 2.39527 11.8956 3.24944C12.1717 3.47832 12.4197 3.70643 12.6357 3.9188C12.8518 3.70643 13.0998 3.47832 13.3759 3.24944C14.4065 2.39527 16.001 1.38684 17.8857 1.38684C21.4632 1.38684 24.3857 4.26137 24.3857 7.83434C24.3857 9.17413 24.116 11.3513 22.6289 13.9312C21.1459 16.5039 18.4916 19.4092 13.828 22.2762L13.8231 22.2792C13.4653 22.4969 13.0546 22.612 12.6357 22.612C12.2169 22.612 11.8062 22.4969 11.4484 22.2792L11.4435 22.2762C6.77992 19.4092 4.12561 16.5039 2.64261 13.9312C1.1555 11.3513 0.885742 9.17413 0.885742 7.83434ZM13.6371 6.53503C13.4011 6.85084 13.03 7.03684 12.6357 7.03684C12.2419 7.03684 11.8712 6.85127 11.6352 6.53613C11.6349 6.53576 11.6347 6.5354 11.6344 6.53503L11.6347 6.5355L11.6352 6.53613L11.6353 6.53624L11.6358 6.53688C11.6358 6.53694 11.6353 6.53627 11.6343 6.5349L11.6216 6.51842C11.6089 6.50205 11.5878 6.47524 11.5587 6.43948C11.5005 6.36785 11.4111 6.26101 11.2939 6.13072C11.058 5.86852 10.7173 5.51995 10.3002 5.17424C9.43053 4.45341 8.40008 3.88684 7.38574 3.88684C5.16507 3.88684 3.38574 5.66591 3.38574 7.83434C3.38574 8.8119 3.57536 10.5433 4.80854 12.6827C6.03476 14.81 8.33117 17.4068 12.6357 20.0742C16.9403 17.4068 19.2367 14.81 20.4629 12.6827C21.6961 10.5433 21.8857 8.8119 21.8857 7.83434C21.8857 5.66591 20.1064 3.88684 17.8857 3.88684C16.8714 3.88684 15.841 4.45341 14.9713 5.17424C14.5542 5.51995 14.2135 5.86852 13.9776 6.13072C13.8604 6.26101 13.7709 6.36785 13.7128 6.43948C13.6837 6.47524 13.6626 6.50205 13.6499 6.51842L13.6372 6.5349C13.6365 6.53581 13.6361 6.53641 13.6358 6.5367L13.6362 6.53624L13.6367 6.5355L13.6371 6.53503Z" fill="#006FFD"/>
</mask>
<g mask="url(#mask0_126_530)">
<rect x="0.635742" y="-0.000549316" width="24" height="24" fill="#006FFD"/>
</g>
</svg>
