<svg width="25" height="24" viewBox="0 0 25 24" fill="none" xmlns="http://www.w3.org/2000/svg">
<mask id="mask0_281_6033" style="mask-type:alpha" maskUnits="userSpaceOnUse" x="0" y="1" width="25" height="21">
<path d="M4.63574 1.99951C3.57488 1.99951 2.55746 2.42094 1.80731 3.17108C1.05717 3.92123 0.635742 4.93865 0.635742 5.99951V6.40151L12.6357 12.8635L24.6357 6.40351V5.99951C24.6357 4.93865 24.2143 3.92123 23.4642 3.17108C22.714 2.42094 21.6966 1.99951 20.6357 1.99951H4.63574ZM24.6357 8.67351L13.1097 14.8795C12.9641 14.9579 12.8012 14.999 12.6357 14.999C12.4703 14.999 12.3074 14.9579 12.1617 14.8795L0.635742 8.67351V17.9995C0.635742 19.0604 1.05717 20.0778 1.80731 20.8279C2.55746 21.5781 3.57488 21.9995 4.63574 21.9995H20.6357C21.6966 21.9995 22.714 21.5781 23.4642 20.8279C24.2143 20.0778 24.6357 19.0604 24.6357 17.9995V8.67351Z" fill="#006FFD"/>
</mask>
<g mask="url(#mask0_281_6033)">
<rect x="0.635742" y="-0.0010376" width="24" height="24" fill="#006FFD"/>
</g>
</svg>
