<svg width="25" height="24" viewBox="0 0 25 24" fill="none" xmlns="http://www.w3.org/2000/svg">
<mask id="mask0_156_1580" style="mask-type:alpha" maskUnits="userSpaceOnUse" x="1" y="0" width="23" height="23">
<circle cx="12.6357" cy="11.9996" r="11" fill="#D9D9D9"/>
</mask>
<g mask="url(#mask0_156_1580)">
<rect x="0.635742" y="-0.000427246" width="24" height="24" fill="#006FFD"/>
</g>
<path fill-rule="evenodd" clip-rule="evenodd" d="M10.2688 10.8128C10.2688 10.2605 10.7165 9.81282 11.2688 9.81282H12.6356C13.1878 9.81282 13.6356 10.2605 13.6356 10.8128V15.4696H14.8414C15.3937 15.4696 15.8414 15.9173 15.8414 16.4696C15.8414 17.0219 15.3937 17.4696 14.8414 17.4696H10.4297C9.8774 17.4696 9.42969 17.0219 9.42969 16.4696C9.42969 15.9173 9.8774 15.4696 10.4297 15.4696H11.6356V11.8128H11.2688C10.7165 11.8128 10.2688 11.3651 10.2688 10.8128Z" fill="white"/>
<path d="M13.8682 7.83806C13.8682 8.56071 13.2823 9.14654 12.5597 9.14654C11.837 9.14654 11.2512 8.56071 11.2512 7.83806C11.2512 7.1154 11.837 6.52957 12.5597 6.52957C13.2823 6.52957 13.8682 7.1154 13.8682 7.83806Z" fill="white"/>
</svg>
