<svg width="25" height="24" viewBox="0 0 25 24" fill="none" xmlns="http://www.w3.org/2000/svg">
<mask id="mask0_294_6245" style="mask-type:alpha" maskUnits="userSpaceOnUse" x="1" y="-1" width="23" height="23">
<path d="M6.88047 21.9995V7.15615H2.16493V21.9995H6.88047ZM4.52331 5.12832C6.1677 5.12832 7.19125 3.98853 7.19125 2.56416C7.16062 1.10767 6.16776 -0.000488281 4.55451 -0.000488281C2.94152 -0.000488281 1.88672 1.10769 1.88672 2.56416C1.88672 3.98859 2.91002 5.12832 4.49253 5.12832H4.52331ZM9.4905 21.9995H14.206V13.7103C14.206 13.2666 14.2367 12.8235 14.3612 12.5063C14.7021 11.62 15.478 10.702 16.7806 10.702C18.487 10.702 19.1696 12.0631 19.1696 14.0585V21.9994H23.8848V13.4884C23.8848 8.92906 21.5585 6.80767 18.4559 6.80767C15.9121 6.80767 14.7952 8.29535 14.1747 9.30861H14.2061V7.15584H9.49061C9.55249 8.54866 9.4905 21.9995 9.4905 21.9995Z" fill="black"/>
</mask>
<g mask="url(#mask0_294_6245)">
<rect x="0.885742" y="-0.000488281" width="24" height="24" fill="#006FFD"/>
</g>
</svg>
