<svg width="25" height="24" viewBox="0 0 25 24" fill="none" xmlns="http://www.w3.org/2000/svg">
<mask id="mask0_101_305" style="mask-type:alpha" maskUnits="userSpaceOnUse" x="2" y="-1" width="21" height="25">
<path d="M18.6368 5.99847C18.6368 9.31218 15.9505 11.9985 12.6368 11.9985C9.32306 11.9985 6.63677 9.31218 6.63677 5.99847C6.63677 2.68477 9.32306 -0.00152588 12.6368 -0.00152588C15.9505 -0.00152588 18.6368 2.68477 18.6368 5.99847Z" fill="#006FFD"/>
<path d="M2.63672 19.999C2.63672 16.6853 5.32301 13.999 8.63672 13.999H16.6367C19.9504 13.999 22.6367 16.6853 22.6367 19.999V20.999C22.6367 22.6559 21.2936 23.999 19.6367 23.999H5.63672C3.97986 23.999 2.63672 22.6559 2.63672 20.999V19.999Z" fill="#006FFD"/>
</mask>
<g mask="url(#mask0_101_305)">
<rect x="0.636719" y="-0.00262451" width="24" height="24" fill="#006FFD"/>
</g>
</svg>
