<svg width="25" height="24" viewBox="0 0 25 24" fill="none" xmlns="http://www.w3.org/2000/svg">
<mask id="mask0_136_9896" style="mask-type:alpha" maskUnits="userSpaceOnUse" x="1" y="0" width="24" height="24">
<path fill-rule="evenodd" clip-rule="evenodd" d="M10.2782 0.498779C5.23394 0.498779 1.1377 4.55537 1.1377 9.56812C1.1377 14.5809 5.23394 18.6375 10.2782 18.6375C12.1588 18.6375 13.9082 18.0734 15.3621 17.1063L21.3252 23.0202C21.9686 23.6583 23.01 23.6583 23.6534 23.0202C24.2991 22.3798 24.2991 21.3399 23.6534 20.6995L17.7285 14.8235C18.7924 13.3411 19.4187 11.5267 19.4187 9.56812C19.4187 4.55537 15.3225 0.498779 10.2782 0.498779ZM4.43444 9.56812C4.43444 6.37345 7.04688 3.77661 10.2782 3.77661C13.5095 3.77661 16.122 6.37345 16.122 9.56812C16.122 12.7628 13.5095 15.3596 10.2782 15.3596C7.04688 15.3596 4.43444 12.7628 4.43444 9.56812Z" fill="#006FFD"/>
</mask>
<g mask="url(#mask0_136_9896)">
<rect x="0.637695" y="-0.0012207" width="24" height="24" fill="#006FFD"/>
</g>
</svg>
