<svg width="25" height="24" viewBox="0 0 25 24" fill="none" xmlns="http://www.w3.org/2000/svg">
<mask id="mask0_213_3659" style="mask-type:alpha" maskUnits="userSpaceOnUse" x="0" y="1" width="24" height="23">
<path d="M1.4592 8.43918C1.32603 8.48355 1.20797 8.56441 1.11848 8.67256C1.02898 8.78071 0.971632 8.91181 0.952956 9.05094C0.934281 9.19007 0.955026 9.33164 1.01283 9.45957C1.07064 9.58749 1.16319 9.69662 1.27995 9.77455L7.91226 13.4306C8.03587 13.4988 8.1762 13.5306 8.31711 13.5225C8.45801 13.5145 8.59379 13.4668 8.70882 13.385L15.7548 8.36069C16.0953 8.13264 16.5025 8.53994 16.2745 8.88041L11.2502 15.9264C11.1684 16.0414 11.1207 16.1772 11.1126 16.3181C11.1046 16.459 11.1364 16.5993 11.2045 16.7229L14.8606 23.3552C14.9386 23.472 15.0477 23.5646 15.1756 23.6224C15.3035 23.6802 15.4451 23.7009 15.5843 23.6822C15.7234 23.6636 15.8545 23.6062 15.9626 23.5167C16.0708 23.4272 16.1516 23.3092 16.196 23.176L23.0903 2.49311C23.1342 2.36105 23.1405 2.21938 23.1084 2.08396C23.0764 1.94854 23.0073 1.8247 22.9089 1.72629C22.8105 1.62789 22.6867 1.55881 22.5512 1.52677C22.4158 1.49473 22.2741 1.501 22.1421 1.54488L1.4592 8.43918Z" fill="#006FFD"/>
</mask>
<g mask="url(#mask0_213_3659)">
<rect x="0.635742" y="-0.000427246" width="24" height="24" fill="#006FFD"/>
</g>
</svg>
