<svg width="25" height="24" viewBox="0 0 25 24" fill="none" xmlns="http://www.w3.org/2000/svg">
<g clip-path="url(#clip0_269_8090)">
<mask id="mask0_269_8090" style="mask-type:alpha" maskUnits="userSpaceOnUse" x="0" y="-1" width="25" height="25">
<path d="M24.3409 10.1748L21.6582 9.37482C21.4728 8.72788 21.2177 8.1029 20.8975 7.51083L22.2108 5.05485C22.2601 4.96214 22.2781 4.85603 22.2622 4.75227C22.2464 4.64851 22.1974 4.55263 22.1227 4.47885L20.2088 2.55886C20.135 2.48419 20.039 2.43531 19.9351 2.41946C19.8313 2.4036 19.7251 2.42163 19.6323 2.47086L17.1899 3.77485C16.5914 3.43938 15.9576 3.17108 15.3 2.97486L14.4992 0.32687C14.4654 0.229283 14.4014 0.14495 14.3165 0.0860083C14.2316 0.0270669 14.1301 -0.0034426 14.0268 -0.00112869H11.3201C11.2161 -0.00064503 11.115 0.0329788 11.0315 0.0948494C10.948 0.15672 10.8864 0.243608 10.8557 0.34287L10.0549 2.98286C9.39186 3.17804 8.75264 3.44636 8.14904 3.78285L5.74669 2.48686C5.65389 2.43763 5.54768 2.4196 5.44382 2.43546C5.33995 2.45131 5.24397 2.50019 5.17012 2.57486L3.22422 4.47085C3.14949 4.54463 3.10055 4.64051 3.08468 4.74427C3.06881 4.84803 3.08686 4.95414 3.13614 5.04685L4.4334 7.44683C4.09712 8.04731 3.82855 8.68319 3.63262 9.34282L0.982032 10.1428C0.882673 10.1735 0.795699 10.235 0.733768 10.3185C0.671836 10.4019 0.638179 10.5029 0.637695 10.6068V13.3108C0.638179 13.4147 0.671836 13.5157 0.733768 13.5992C0.795699 13.6826 0.882673 13.7441 0.982032 13.7748L3.64864 14.5748C3.84671 15.2234 4.11523 15.8485 4.44942 16.4388L3.13614 18.9508C3.08686 19.0435 3.06881 19.1496 3.08468 19.2533C3.10055 19.3571 3.14949 19.453 3.22422 19.5268L5.13809 21.4388C5.21194 21.5134 5.30792 21.5623 5.41178 21.5782C5.51565 21.594 5.62186 21.576 5.71466 21.5268L8.18907 20.2068C8.77442 20.5223 9.39186 20.7744 10.0309 20.9588L10.8317 23.6548C10.8623 23.754 10.9239 23.8409 11.0075 23.9028C11.091 23.9646 11.1921 23.9983 11.2961 23.9987H14.0028C14.1067 23.9983 14.2079 23.9646 14.2914 23.9028C14.3749 23.8409 14.4365 23.754 14.4672 23.6548L15.268 20.9508C15.9015 20.7655 16.5136 20.5134 17.0938 20.1988L19.5842 21.5268C19.677 21.576 19.7832 21.594 19.8871 21.5782C19.9909 21.5623 20.0869 21.5134 20.1608 21.4388L22.0746 19.5268C22.1494 19.453 22.1983 19.3571 22.2142 19.2533C22.2301 19.1496 22.212 19.0435 22.1627 18.9508L20.8334 16.4708C21.1516 15.8889 21.4067 15.2748 21.5942 14.6388L24.2928 13.8388C24.3922 13.8081 24.4791 13.7466 24.5411 13.6632C24.603 13.5797 24.6367 13.4787 24.6371 13.3748V10.6468C24.6419 10.5473 24.616 10.4488 24.5631 10.3644C24.5101 10.2801 24.4326 10.2139 24.3409 10.1748ZM12.6735 16.3988C11.8024 16.3988 10.9508 16.1407 10.2266 15.6573C9.50227 15.1738 8.93776 14.4866 8.60441 13.6826C8.27106 12.8786 8.18384 11.9939 8.35378 11.1404C8.52372 10.2869 8.94319 9.5029 9.55914 8.88756C10.1751 8.27221 10.9599 7.85315 11.8142 7.68338C12.6686 7.5136 13.5541 7.60074 14.3589 7.93376C15.1637 8.26679 15.8515 8.83074 16.3355 9.55431C16.8195 10.2779 17.0778 11.1286 17.0778 11.9988C17.0778 13.1658 16.6137 14.2849 15.7878 15.1101C14.9618 15.9352 13.8415 16.3988 12.6735 16.3988Z" fill="#006FFD"/>
</mask>
<g mask="url(#mask0_269_8090)">
<rect x="0.637695" y="-0.0012207" width="24" height="24" fill="#006FFD"/>
</g>
</g>
<defs>
<clipPath id="clip0_269_8090">
<rect width="24" height="24" fill="white" transform="translate(0.637695 -0.0012207)"/>
</clipPath>
</defs>
</svg>
