<svg width="25" height="24" viewBox="0 0 25 24" fill="none" xmlns="http://www.w3.org/2000/svg">
<mask id="mask0_216_6041" style="mask-type:alpha" maskUnits="userSpaceOnUse" x="2" y="0" width="21" height="24">
<path fill-rule="evenodd" clip-rule="evenodd" d="M9.30459 1.3368C10.2004 0.49405 11.4 0.0328674 12.636 0.0328674C13.8719 0.0328674 15.0715 0.49405 15.9673 1.3368C16.8658 2.18198 17.386 3.3452 17.386 4.57546V10.3144C17.386 11.0048 16.8263 11.5644 16.136 11.5644C15.4456 11.5644 14.886 11.0048 14.886 10.3144V4.57546C14.886 4.05923 14.6687 3.54747 14.2543 3.15769C13.8374 2.76548 13.2565 2.53287 12.636 2.53287C12.0154 2.53287 11.4345 2.76548 11.0176 3.15769C10.6032 3.54747 10.386 4.05923 10.386 4.57546V10.3144C10.386 11.0048 9.82631 11.5644 9.13596 11.5644C8.4456 11.5644 7.88596 11.0048 7.88596 10.3144V4.57546C7.88596 3.3452 8.40617 2.18198 9.30459 1.3368Z" fill="#006FFD"/>
<path d="M6.7507 7.23005C5.04588 7.23005 3.63082 8.54737 3.509 10.2478L2.79265 20.2478C2.65787 22.1294 4.14797 23.73 6.03435 23.73H19.2376C21.1239 23.73 22.614 22.1294 22.4793 20.2478L21.7629 10.2478C21.6411 8.54737 20.226 7.23005 18.5212 7.23005H6.7507Z" fill="#006FFD"/>
</mask>
<g mask="url(#mask0_216_6041)">
<rect x="0.635742" y="-0.000549316" width="24" height="24" fill="#006FFD"/>
</g>
</svg>
