<svg width="25" height="24" viewBox="0 0 25 24" fill="none" xmlns="http://www.w3.org/2000/svg">
<mask id="mask0_216_6040" style="mask-type:alpha" maskUnits="userSpaceOnUse" x="2" y="-1" width="21" height="25">
<path fill-rule="evenodd" clip-rule="evenodd" d="M9.30463 1.30338C10.2005 0.460634 11.4 -0.000549316 12.636 -0.000549316C13.872 -0.000549316 15.0715 0.460634 15.9674 1.30338C16.8658 2.14857 17.386 3.31178 17.386 4.54205V11.3005C17.386 11.9909 16.8264 12.5505 16.136 12.5505C15.4456 12.5505 14.886 11.9909 14.886 11.3005V4.54205C14.886 4.02581 14.6687 3.51406 14.2544 3.12428C13.8375 2.73206 13.2565 2.49945 12.636 2.49945C12.0155 2.49945 11.4345 2.73206 11.0176 3.12428C10.6033 3.51406 10.386 4.02581 10.386 4.54205V11.3005C10.386 11.9909 9.82636 12.5505 9.136 12.5505C8.44565 12.5505 7.886 11.9909 7.886 11.3005V4.54205C7.886 3.31178 8.40621 2.14857 9.30463 1.30338Z" fill="#006FFD"/>
<path fill-rule="evenodd" clip-rule="evenodd" d="M3.509 10.2144C3.63082 8.51394 5.04588 7.19662 6.7507 7.19662H18.5212C20.226 7.19662 21.6411 8.51395 21.7629 10.2144L22.4793 20.2144C22.614 22.096 21.1239 23.6966 19.2376 23.6966H6.03435C4.14797 23.6966 2.65787 22.096 2.79265 20.2144L3.509 10.2144ZM6.7507 9.69662C6.35728 9.69662 6.03073 10.0006 6.00261 10.393L5.28626 20.393C5.25516 20.8272 5.59903 21.1966 6.03435 21.1966H19.2376C19.6729 21.1966 20.0167 20.8272 19.9856 20.393L19.2693 10.393C19.2412 10.0006 18.9146 9.69662 18.5212 9.69662H6.7507Z" fill="#006FFD"/>
</mask>
<g mask="url(#mask0_216_6040)">
<rect x="0.635742" y="-0.000549316" width="24" height="24" fill="#006FFD"/>
</g>
</svg>
