<svg width="25" height="24" viewBox="0 0 25 24" fill="none" xmlns="http://www.w3.org/2000/svg">
<g clip-path="url(#clip0_211_5913)">
<mask id="mask0_211_5913" style="mask-type:alpha" maskUnits="userSpaceOnUse" x="0" y="-1" width="25" height="24">
<path d="M23.8602 8.06985L16.6654 7.02421L13.4491 0.50386C13.3613 0.325337 13.2168 0.180818 13.0383 0.0929734C12.5905 -0.128055 12.0465 0.0561353 11.8226 0.50386L8.60634 7.02421L1.41157 8.06985C1.21321 8.09819 1.03185 8.1917 0.892998 8.33338C0.725134 8.50592 0.632634 8.73804 0.635822 8.97874C0.63901 9.21943 0.737626 9.44902 0.91 9.61705L6.11551 14.6922L4.88569 21.8586C4.85685 22.0254 4.87529 22.1968 4.93894 22.3536C5.00258 22.5103 5.10887 22.6461 5.24576 22.7455C5.38265 22.8449 5.54466 22.904 5.71341 22.9161C5.88216 22.9281 6.05091 22.8926 6.20052 22.8136L12.6359 19.4302L19.0712 22.8136C19.2469 22.9071 19.4509 22.9383 19.6464 22.9043C20.1395 22.8193 20.4711 22.3517 20.386 21.8586L19.1562 14.6922L24.3617 9.61705C24.5034 9.4782 24.5969 9.29684 24.6253 9.09848C24.7018 8.60258 24.3561 8.14352 23.8602 8.06985Z" fill="#006FFD"/>
</mask>
<g mask="url(#mask0_211_5913)">
<rect x="0.635742" y="-0.000549316" width="24" height="24" fill="#006FFD"/>
</g>
</g>
<defs>
<clipPath id="clip0_211_5913">
<rect width="24" height="24" fill="white" transform="translate(0.635742 -0.000549316)"/>
</clipPath>
</defs>
</svg>
