<svg width="25" height="24" viewBox="0 0 25 24" fill="none" xmlns="http://www.w3.org/2000/svg">
<mask id="mask0_267_7095" style="mask-type:alpha" maskUnits="userSpaceOnUse" x="0" y="1" width="25" height="22">
<path d="M3.4842 4.15537H21.7873C22.5063 4.15537 23.0946 3.56706 23.0946 2.84801C23.0946 2.12896 22.5063 1.54065 21.7873 1.54065H3.4842C2.76515 1.54065 2.17684 2.12896 2.17684 2.84801C2.17684 3.56706 2.76515 4.15537 3.4842 4.15537ZM23.3038 6.50863C23.1862 5.90724 22.6501 5.46274 22.0226 5.46274H3.24888C2.62134 5.46274 2.08533 5.90724 1.96766 6.50863L0.6603 13.0454C0.503417 13.856 1.11788 14.6143 1.94152 14.6143H2.17684V21.1511C2.17684 21.8701 2.76515 22.4585 3.4842 22.4585H13.9431C14.6622 22.4585 15.2505 21.8701 15.2505 21.1511V14.6143H20.4799V21.1511C20.4799 21.8701 21.0682 22.4585 21.7873 22.4585C22.5063 22.4585 23.0946 21.8701 23.0946 21.1511V14.6143H23.33C24.1536 14.6143 24.7681 13.856 24.6112 13.0454L23.3038 6.50863ZM12.6357 19.8437H4.79157V14.6143H12.6357V19.8437Z" fill="black"/>
</mask>
<g mask="url(#mask0_267_7095)">
<rect x="0.635742" y="-0.00158691" width="24" height="24" fill="#006FFD"/>
</g>
</svg>
