<svg width="25" height="24" viewBox="0 0 25 24" fill="none" xmlns="http://www.w3.org/2000/svg">
<mask id="mask0_156_1577" style="mask-type:alpha" maskUnits="userSpaceOnUse" x="1" y="0" width="23" height="23">
<circle cx="12.6357" cy="11.9996" r="11" fill="#D9D9D9"/>
</mask>
<g mask="url(#mask0_156_1577)">
<rect x="0.635742" y="-0.000427246" width="24" height="24" fill="#006FFD"/>
</g>
<path d="M12.0832 6.0596C12.2575 5.98285 12.4459 5.94329 12.6363 5.94345C12.8266 5.9435 13.0148 5.98321 13.1889 6.06005C13.363 6.1369 13.5192 6.24918 13.6475 6.38976C13.7758 6.53033 13.8734 6.6961 13.9341 6.87648C13.9947 7.05687 14.0171 7.24793 13.9998 7.43745L13.4538 13.4465C13.4326 13.6485 13.3373 13.8355 13.1863 13.9714C13.0354 14.1073 12.8394 14.1826 12.6363 14.1826C12.4332 14.1826 12.2372 14.1073 12.0863 13.9714C11.9353 13.8355 11.84 13.6485 11.8188 13.4465L11.2713 7.43745C11.254 7.2478 11.2764 7.05662 11.3372 6.87613C11.3979 6.69564 11.4956 6.5298 11.6241 6.3892C11.7525 6.24861 11.9089 6.13635 12.0832 6.0596Z" fill="white"/>
<path d="M13.9448 16.7472C13.9448 17.4699 13.359 18.0557 12.6364 18.0557C11.9137 18.0557 11.3279 17.4699 11.3279 16.7472C11.3279 16.0246 11.9137 15.4387 12.6364 15.4387C13.359 15.4387 13.9448 16.0246 13.9448 16.7472Z" fill="white"/>
</svg>
